HIERARCHY
ROOT Hips
{
  OFFSET 3.13124 94.3669 -3.18751
  CHANNELS  6 Xposition Yposition Zposition Zrotation Xrotation Yrotation
  JOINT LeftUpLeg
  {
    OFFSET 8.64259 1.95398 -2.38835
    CHANNELS 3 Zrotation Xrotation Yrotation
    JOINT LeftLeg
    {
      OFFSET 43.7702 0 0
      CHANNELS 3 Zrotation Xrotation Yrotation
      JOINT LeftFoot
      {
        OFFSET 40.6238 0 0
        CHANNELS 3 Zrotation Xrotation Yrotation
        JOINT LeftToeBase
        {
          OFFSET 12.7242 0 0
          CHANNELS 3 Zrotation Xrotation Yrotation
          End Site
          {
            OFFSET 0 0 0
          }
        }
      }
    }
  }
  JOINT RightUpLeg
  {
    OFFSET -8.2249 1.95398 -2.59336
    CHANNELS 3 Zrotation Xrotation Yrotation
    JOINT RightLeg
    {
      OFFSET 43.5653 0 0
      CHANNELS 3 Zrotation Xrotation Yrotation
      JOINT RightFoot
      {
        OFFSET 40.6238 0 0
        CHANNELS 3 Zrotation Xrotation Yrotation
        JOINT RightToeBase
        {
          OFFSET 12.7242 0 0
          CHANNELS 3 Zrotation Xrotation Yrotation
          End Site
          {
            OFFSET 0 0 0
          }
        }
      }
    }
  }
  JOINT Spine
  {
    OFFSET 0.165834 0.87714 6.61349
    CHANNELS 3 Zrotation Xrotation Yrotation
    JOINT Spine1
    {
      OFFSET 7.38962 1.71661e-005 0
      CHANNELS 3 Zrotation Xrotation Yrotation
      JOINT Spine2
      {
        OFFSET 11.9445 1.14441e-005 0
        CHANNELS 3 Zrotation Xrotation Yrotation
        JOINT Spine3
        {
          OFFSET 14.7254 4.19617e-005 0
          CHANNELS 3 Zrotation Xrotation Yrotation
          JOINT Spine4
          {
            OFFSET 10.9679 0 0
            CHANNELS 3 Zrotation Xrotation Yrotation
            JOINT RightShoulder
            {
              OFFSET 2.46616 -1.6653 3.69651
              CHANNELS 3 Zrotation Xrotation Yrotation
              JOINT RightArm
              {
                OFFSET 13.0012 0 0
                CHANNELS 3 Zrotation Xrotation Yrotation
                JOINT RightForeArm
                {
                  OFFSET 28.7848 1.52588e-005 0
                  CHANNELS 3 Zrotation Xrotation Yrotation
                  JOINT RightHand
                  {
                    OFFSET 26.5688 1.52588e-005 0
                    CHANNELS 3 Zrotation Xrotation Yrotation
                    End Site
                    {
                      OFFSET 0 0 0
                    }
                  }
                }
              }
            }
            JOINT LeftShoulder
            {
              OFFSET 2.38034 -1.29275 -3.75231
              CHANNELS 3 Zrotation Xrotation Yrotation
              JOINT LeftArm
              {
                OFFSET 16.3182 6.10352e-005 0
                CHANNELS 3 Zrotation Xrotation Yrotation
                JOINT LeftForeArm
                {
                  OFFSET 27.0901 0 0
                  CHANNELS 3 Zrotation Xrotation Yrotation
                  JOINT LeftHand
                  {
                    OFFSET 24.5451 1.52588e-005 0
                    CHANNELS 3 Zrotation Xrotation Yrotation
                    End Site
                    {
                      OFFSET 0 0 0
                    }
                  }
                }
              }
            }
            JOINT Neck
            {
              OFFSET 5.0226 -0.0266342 0
              CHANNELS 3 Zrotation Xrotation Yrotation
              JOINT Head
              {
                OFFSET 6.69363 2.86102e-005 0
                CHANNELS 3 Zrotation Xrotation Yrotation
                End Site
                {
                  OFFSET 0 0 0
                }
              }
            }
          }
        }
      }
    }
  }
}
MOTION
Frames:	15
Frame Time:	0.0333333
4.12124 96.6782 -17.261 32.9748 -89.9963 33.0424 -171.858 2.67331 91.9295 -8.68495 8.0183 0.735071 63.2554 1.70526 0.893805 28.7808 5.06405e-006 6.17695e-006 178.114 1.89663 86.6616 -7.37423 -1.82873 -0.109755 62.6146 -1.30709 -0.662575 28.7808 1.47789e-005 3.03534e-005 0.00530953 6.33254 -90.0669 14.1935 4.99917e-006 3.49096e-006 2.52251 0.0141445 -6.19633e-006 -20.0126 0.00480684 8.48762e-006 -1.59028e-015 0.00480646 -1.94126e-018 101.053 -18.3753 -84.9399 -2.33491 40.6677 -15.6342 3.26004 0.287656 -7.22111 -5.37983 -0.32002 -0.0162387 -79.0003 -21.1987 94.2578 10.3188 -39.4622 -8.65987 4.49407 39.5694 -13.846 -1.48416 -0.0288403 3.57498 1.76302 -0.00121664 0.00158338 -7.41608 -0.000376893 -0.00285947 
4.18288 96.6866 -17.249 -0.0546534 -89.9555 0.0789182 -171.878 2.58265 91.9415 -8.42346 7.99011 0.74052 63.2029 1.80132 0.953146 28.7808 5.06405e-006 6.17695e-006 178.034 1.10872 86.7023 -5.64538 -1.82938 -0.109755 61.7441 -1.27682 -0.628876 28.7808 1.47789e-005 3.03534e-005 0.00933479 6.33183 -90.1164 14.1935 4.99917e-006 3.49096e-006 2.52251 0.0141445 -6.19633e-006 -20.0126 0.00480684 8.48762e-006 -3.18055e-015 0.00480646 7.37677e-018 101.091 -18.3144 -84.929 -2.3064 40.6555 -15.6398 3.25777 0.287652 -7.22711 -5.37983 -0.32002 -0.0162387 -78.9361 -21.2796 94.3285 10.3141 -39.4691 -8.74048 4.40563 39.4748 -13.8193 -1.29524 -0.0154848 3.59961 1.88993 -0.0204793 0.0186377 -7.48036 -0.00678514 -0.040787 
4.24566 96.6912 -17.2277 -123.897 -89.95 -123.783 -171.882 2.56457 91.8935 -8.60811 7.9978 0.768745 63.2668 1.76308 0.927385 28.7808 5.06405e-006 6.17695e-006 178.075 1.57994 86.6402 -6.80051 -1.84038 -0.109756 62.3497 -1.27323 -0.639715 28.7808 1.47789e-005 3.03534e-005 0.00532455 6.33253 -90.0683 14.1934 -1.43024e-005 -2.67994e-005 2.52248 0.0141445 -3.52148e-005 -20.0127 0.00480684 -2.60418e-005 -2.85959e-005 0.00480646 -3.43351e-005 101.009 -18.3802 -85.0734 -2.47435 40.7172 -15.4748 3.23555 0.287639 -7.2481 -5.37983 -0.32002 -0.0162387 -78.9911 -21.3054 94.2628 10.4003 -39.4949 -8.6178 4.43327 39.5805 -13.8266 -1.17824 -0.0073555 3.60619 1.70948 -0.0319319 -0.0755452 -7.2853 -0.0178834 0.0268561 
4.31377 96.6803 -17.2066 -93.0857 -89.9136 -92.9703 -171.894 2.57828 91.8565 -8.63712 7.9406 0.750455 63.3075 1.812 0.955159 28.7808 5.06405e-006 6.17695e-006 178.078 1.79338 86.5993 -7.19292 -1.86222 -0.109757 62.4987 -1.28211 -0.647967 28.7808 1.47789e-005 3.03534e-005 0.00464543 6.33263 -90.0575 14.194 0.000375372 0.00060092 2.52308 0.0141445 0.000580291 -20.0121 0.00480684 0.000691924 0.000576032 0.00480646 0.00068673 101.089 -18.378 -84.9806 -2.4368 40.7139 -15.5969 3.24403 0.287634 -7.25601 -5.37983 -0.32002 -0.0162387 -78.929 -21.3544 94.3243 10.4164 -39.5259 -8.64985 4.3932 39.5949 -13.7003 -1.1299 -0.00864036 3.28581 1.82601 -0.00942446 0.0192132 -7.35559 -0.043747 -0.0756222 
4.38601 96.6814 -17.184 -74.3691 -89.8854 -74.2116 -171.906 2.521 91.8593 -8.47722 7.90972 0.729498 63.3018 1.79122 0.946672 28.7808 5.06405e-006 6.17695e-006 177.982 0.946387 86.6059 -5.36997 -1.89833 -0.109936 61.6713 -1.21958 -0.596943 28.7808 1.47789e-005 3.03534e-005 0.0105912 6.3323 -90.0871 14.2095 0.0104483 0.016986 2.53853 0.0141445 0.0165007 -19.9966 0.00467247 0.0193456 0.0160313 0.00467199 0.0193431 101.079 -18.425 -84.8859 -2.42014 40.6991 -15.6449 3.23688 0.287634 -7.25617 -5.37983 -0.32002 -0.0162387 -78.9926 -21.3186 94.2693 10.5166 -39.512 -8.54331 4.33138 39.2556 -13.8325 -1.25839 -0.0122357 3.66233 1.88557 -0.0737649 -0.0348882 -7.4001 -0.0640213 -0.0844002 
4.45289 96.6939 -17.1516 -101.738 -89.8467 -101.583 -171.91 2.48746 91.829 -8.6177 7.902 0.733335 63.3714 1.77106 0.933086 28.7808 5.06405e-006 6.17695e-006 177.969 0.952641 86.5457 -5.56539 -1.94249 -0.112696 61.7624 -1.25995 -0.6215 28.7808 1.47789e-005 3.03534e-005 0.00773584 6.33237 -90.0677 14.209 0.00869543 0.019954 2.53809 0.0141445 0.0195556 -19.9971 0.00211426 0.0215917 0.0155826 0.00211153 0.0215869 101.059 -18.4782 -84.9282 -2.48683 40.7216 -15.6038 3.22106 0.287635 -7.25321 -5.37983 -0.32002 -0.0162387 -79.0097 -21.3907 94.2396 10.5934 -39.5805 -8.48947 4.41913 39.3815 -13.9011 -1.3222 -0.0141602 3.9479 1.68325 -0.0793099 0.0115968 -7.09202 -0.073749 -0.141974 
4.53138 96.6681 -17.1268 -95.9764 -89.8323 -95.8558 -171.944 2.54177 91.7314 -8.76949 7.84852 0.739759 63.4546 1.98491 1.05368 28.7808 5.06405e-006 6.17695e-006 178.046 1.99411 86.4755 -7.68993 -1.89926 -0.114679 62.7102 -1.27809 -0.650076 28.7808 1.47789e-005 3.03534e-005 0.000502902 6.32957 -90.0197 14.2148 0.00730729 0.0305616 2.54381 0.0141445 0.0303882 -19.9913 -0.00609651 0.0301295 0.0213178 -0.00610747 0.0301133 101.054 -18.5714 -84.9224 -2.55561 40.719 -15.5824 3.23481 0.287637 -7.2512 -5.37983 -0.32002 -0.0162387 -79.0202 -21.3807 94.2244 10.6249 -39.5925 -8.44912 4.3712 39.4528 -13.826 -1.13571 -0.00127642 3.88371 1.72118 -0.110356 -0.0116758 -7.07617 -0.0996475 -0.15287 
4.61967 96.6736 -17.1114 -66.3781 -89.7896 -66.1923 -171.973 2.50331 91.7306 -8.49231 7.77362 0.711774 63.3835 2.01281 1.07448 28.7808 5.06405e-006 6.17695e-006 177.921 0.977846 86.4923 -5.35483 -1.96933 -0.116343 61.5895 -1.22892 -0.601385 28.7808 1.47789e-005 3.03534e-005 0.00514315 6.31765 -90.0719 14.2386 0.00588457 0.0414083 2.56769 0.0141445 0.041092 -19.9675 -0.0067079 0.0413031 0.0452024 -0.00671709 0.0412843 101.064 -18.5548 -84.8942 -2.4653 40.7102 -15.5617 3.22052 0.287637 -7.25095 -5.37983 -0.32002 -0.0162387 -79.0185 -21.315 94.2283 10.5414 -39.5246 -8.46064 4.25868 39.1729 -13.8945 -1.0583 0.00914333 4.30576 1.85426 -0.137821 -0.0509684 -7.23634 -0.121821 -0.142681 
4.70507 96.6873 -17.0817 -91.6523 -89.7579 -91.4552 -171.979 2.39404 91.7038 -8.54849 7.73115 0.710898 63.4975 2.01997 1.07816 28.7808 5.06405e-006 6.17695e-006 177.9 0.930297 86.4343 -5.49981 -2.03922 -0.117866 61.6901 -1.22017 -0.597117 28.7808 1.47789e-005 3.03534e-005 0.00715621 6.3183 -90.0618 14.2374 0.00558591 0.0425736 2.56642 0.0138644 0.041983 -19.9687 -0.00107279 0.044278 0.0439147 -0.00107264 0.0442722 101.02 -18.625 -85.0122 -2.57675 40.7609 -15.3622 3.21893 0.287649 -7.23129 -5.37983 -0.32002 -0.0162387 -79.0157 -21.4198 94.2297 10.483 -39.5646 -8.5789 4.41499 39.247 -13.9803 -1.38873 -0.0155443 4.34759 1.58091 -0.15228 -0.0201575 -6.9559 -0.139589 -0.1667 
4.78667 96.6894 -17.0554 -96.803 -89.7028 -96.6263 -171.97 2.42167 91.653 -8.73187 7.68013 0.674692 63.5354 2.06363 1.09974 28.7808 5.06405e-006 6.17695e-006 177.932 1.41438 86.3614 -6.57791 -2.07114 -0.119427 62.2052 -1.26854 -0.636835 28.7808 1.47789e-005 3.03534e-005 -0.000462918 6.31002 -90.0125 14.2538 0.00758476 0.0594776 2.5829 0.0100857 0.0590806 -19.9522 -0.0107307 0.0594868 0.0604113 -0.01073 0.0594755 100.966 -18.9352 -85.1226 -2.76958 40.8563 -15.2917 3.20221 0.287656 -7.22135 -5.37983 -0.32002 -0.0162387 -79.0411 -21.4027 94.1773 10.5349 -39.4987 -8.43959 4.3376 39.0081 -13.9893 -1.50823 -0.024992 4.29842 1.34998 -0.141948 -0.254602 -6.77311 -0.102601 0.0340363 
4.88937 96.6881 -17.0388 -83.9365 -89.6835 -83.7443 -171.998 2.45298 91.5967 -8.69335 7.65342 0.653132 63.5355 2.18114 1.16785 28.7808 5.06405e-006 6.17695e-006 177.836 0.843423 86.3081 -5.25105 -2.1572 -0.120733 61.5977 -1.17651 -0.571908 28.7808 1.47789e-005 3.03534e-005 0.00684901 6.29885 -90.0353 14.2762 0.0149261 0.0411503 2.60528 0.0167814 0.0404302 -19.9299 0.00243785 0.058981 0.0827593 0.00244305 0.058977 101.001 -18.7208 -85.0447 -2.60575 40.7873 -15.3011 3.18718 0.287673 -7.19354 -5.37983 -0.32002 -0.0162387 -79.0592 -21.6063 94.1511 10.4366 -39.5106 -8.57344 4.34925 38.8027 -13.898 -1.87832 -0.054469 3.98371 1.40768 -0.125937 0.0445017 -6.89577 -0.12303 -0.193542 
4.98499 96.6789 -17.0162 -86.745 -89.645 -86.5355 -172.009 2.3958 91.5609 -8.66563 7.56554 0.619389 63.6206 2.22702 1.19499 28.7808 5.06405e-006 6.17695e-006 177.81 0.760067 86.2646 -5.12758 -2.16194 -0.122046 61.6104 -1.21919 -0.599853 28.7808 1.47789e-005 3.03534e-005 0.00860503 6.29625 -90.0283 14.2814 0.0214276 0.0470728 2.61044 0.023475 0.0460748 -19.9247 0.00618275 0.0528436 0.0879446 0.00618437 0.0528501 101.001 -18.7879 -85.0457 -2.60194 40.7518 -15.2294 3.22096 0.287653 -7.22562 -5.37983 -0.32002 -0.0162387 -79.0665 -21.5525 94.1282 10.2506 -39.4162 -8.61415 4.32653 38.845 -13.9046 -1.66976 -0.0387764 4.05332 1.36634 -0.126389 -0.164472 -6.86144 -0.0999506 -0.00404306 
5.09525 96.6906 -16.9987 -93.1018 -89.6391 -92.8824 -172.019 2.39015 91.5154 -8.79196 7.63784 0.640109 63.6679 2.25788 1.21047 28.7808 5.06405e-006 6.17695e-006 177.789 0.727282 86.2088 -5.15829 -2.17048 -0.124274 61.5876 -1.14886 -0.557188 28.7808 1.47789e-005 3.03534e-005 0.00593856 6.29493 -90.013 14.2841 0.0216188 0.0467311 2.6131 0.0236424 0.0458701 -19.922 0.00349704 0.0499947 0.090601 0.00349975 0.0500014 101.004 -18.9338 -85.0253 -2.62387 40.7822 -15.2865 3.21772 0.287667 -7.20077 -5.37983 -0.32002 -0.0162387 -79.112 -21.6693 94.0357 10.2668 -39.4292 -8.57044 4.31969 38.4872 -13.9045 -1.98909 -0.062746 3.91954 1.21094 -0.133771 -0.237746 -6.66186 -0.0986793 0.0502187 
5.20819 96.657 -16.9892 -73.1725 -89.635 -72.9715 -172.058 2.48793 91.4133 -8.75973 7.55449 0.586375 63.7119 2.41538 1.30112 28.7808 5.06405e-006 6.17695e-006 177.734 0.689281 86.1113 -4.8096 -2.24667 -0.127388 61.5668 -1.02571 -0.488524 28.7808 1.47789e-005 3.03534e-005 0.00369201 6.28139 -89.9998 14.3111 0.0189979 0.0532966 2.64014 0.0211005 0.0524904 -19.895 0.000129058 0.0558914 0.117635 0.000131563 0.0558764 100.999 -18.8583 -85.0425 -2.53443 40.7261 -15.192 3.25172 0.287646 -7.20078 -5.37983 -0.32002 -0.0162387 -79.0938 -21.7126 94.0775 10.1336 -39.3746 -8.69544 4.33885 38.4689 -13.8589 -2.18869 -0.07763 3.65811 1.37147 -0.154635 -0.226223 -6.88839 -0.117211 -0.032241 
5.32548 96.6827 -16.9628 -84.91 -89.6667 -84.6538 -172.067 2.39396 91.4133 -8.76107 7.61699 0.616448 63.6993 2.33472 1.25461 28.7808 5.06405e-006 6.17695e-006 177.754 0.69901 86.1401 -5.01598 -1.88379 -0.107974 61.5079 -1.21433 -0.597766 28.7808 1.47789e-005 3.03534e-005 0.00309014 6.28986 -89.9964 14.2942 0.0166936 0.0699751 2.62322 0.018965 0.0690673 -19.9119 -0.00102748 0.072463 0.100724 -0.00103216 0.0724531 101.062 -19.2097 -84.8648 -2.55509 40.7874 -15.3755 3.23377 0.287622 -7.20082 -5.37983 -0.32002 -0.0162387 -79.0972 -21.6106 94.0642 10.0089 -39.3162 -8.74367 4.36002 38.267 -13.8619 -2.4023 -0.0925781 3.41062 1.30942 -0.228302 -0.5794 -6.68797 -0.145354 0.174591 
